<svg width="127" height="18" viewBox="0 0 127 18" fill="none" xmlns="http://www.w3.org/2000/svg">
<path d="M125.067 8.00492C125.043 6.30978 123.657 4.93826 121.956 4.93826C121.572 4.93826 121.192 5.00981 120.836 5.14725C120.562 4.31639 120.048 3.57074 119.362 3.01597C118.552 2.36082 117.531 2 116.487 2C114.029 2 112.018 3.94706 111.914 6.37957C111.132 6.61128 110.427 7.0795 109.909 7.71771C109.323 8.4392 109 9.34934 109 10.2806C109 12.5234 110.825 14.3481 113.067 14.3481H123.676C125.509 14.3481 127 12.857 127 11.0242C127 9.72622 126.233 8.54325 125.067 8.00492ZM123.676 13.6497H113.067C111.21 13.6497 109.698 12.1383 109.698 10.2806C109.698 9.50926 109.966 8.75551 110.451 8.15814C110.93 7.56896 111.599 7.15465 112.335 6.99151C112.497 6.95562 112.612 6.81064 112.609 6.64475L112.609 6.63325C112.608 6.61463 112.608 6.59596 112.608 6.57725C112.608 4.43847 114.348 2.6984 116.487 2.6984C117.384 2.6984 118.227 2.99604 118.923 3.5591C119.6 4.10624 120.078 4.87205 120.269 5.71538C120.294 5.82274 120.367 5.91237 120.468 5.95716C120.569 6.00194 120.684 5.99663 120.78 5.94282C121.138 5.74253 121.545 5.63666 121.956 5.63666C123.286 5.63666 124.369 6.71911 124.369 8.04961C124.369 8.09794 124.367 8.14943 124.363 8.21172C124.352 8.36587 124.445 8.50852 124.59 8.5623C125.614 8.94243 126.302 9.93177 126.302 11.0242C126.302 12.4719 125.124 13.6497 123.676 13.6497Z" fill="#91C3FA"/>
<path d="M0.384 8.752C0.384 7.92 0.556 7.18 0.9 6.532C1.252 5.876 1.748 5.368 2.388 5.008C3.028 4.64 3.764 4.456 4.596 4.456C5.652 4.456 6.54 4.74 7.26 5.308C7.98 5.868 8.444 6.632 8.652 7.6H6.12C5.968 7.28 5.756 7.036 5.484 6.868C5.22 6.7 4.912 6.616 4.56 6.616C4.016 6.616 3.58 6.812 3.252 7.204C2.932 7.588 2.772 8.104 2.772 8.752C2.772 9.408 2.932 9.932 3.252 10.324C3.58 10.708 4.016 10.9 4.56 10.9C4.912 10.9 5.22 10.816 5.484 10.648C5.756 10.48 5.968 10.236 6.12 9.916H8.652C8.444 10.884 7.98 11.652 7.26 12.22C6.54 12.78 5.652 13.06 4.596 13.06C3.764 13.06 3.028 12.88 2.388 12.52C1.748 12.152 1.252 11.644 0.9 10.996C0.556 10.34 0.384 9.592 0.384 8.752ZM16.6538 6.268V13H14.2898V12.04C14.0898 12.344 13.8138 12.592 13.4618 12.784C13.1098 12.968 12.7058 13.06 12.2498 13.06C11.4658 13.06 10.8458 12.804 10.3898 12.292C9.94175 11.772 9.71775 11.068 9.71775 10.18V6.268H12.0578V9.88C12.0578 10.264 12.1578 10.568 12.3578 10.792C12.5658 11.008 12.8378 11.116 13.1738 11.116C13.5178 11.116 13.7898 11.008 13.9898 10.792C14.1898 10.568 14.2898 10.264 14.2898 9.88V6.268H16.6538ZM20.3443 7.456C20.6083 7.072 20.9283 6.768 21.3043 6.544C21.6803 6.32 22.0843 6.208 22.5163 6.208V8.716H21.8563C21.3443 8.716 20.9643 8.816 20.7163 9.016C20.4683 9.216 20.3443 9.564 20.3443 10.06V13H17.9923V6.268H20.3443V7.456ZM25.7115 7.456C25.9755 7.072 26.2955 6.768 26.6715 6.544C27.0475 6.32 27.4515 6.208 27.8835 6.208V8.716H27.2235C26.7115 8.716 26.3315 8.816 26.0835 9.016C25.8355 9.216 25.7115 9.564 25.7115 10.06V13H23.3595V6.268H25.7115V7.456ZM35.1587 9.556C35.1587 9.74 35.1467 9.924 35.1227 10.108H30.6707C30.6947 10.476 30.7947 10.752 30.9707 10.936C31.1547 11.112 31.3867 11.2 31.6667 11.2C32.0587 11.2 32.3387 11.024 32.5067 10.672H35.0147C34.9107 11.136 34.7067 11.552 34.4027 11.92C34.1067 12.28 33.7307 12.564 33.2747 12.772C32.8187 12.98 32.3147 13.084 31.7627 13.084C31.0987 13.084 30.5067 12.944 29.9867 12.664C29.4747 12.384 29.0707 11.984 28.7747 11.464C28.4867 10.944 28.3427 10.332 28.3427 9.628C28.3427 8.924 28.4867 8.316 28.7747 7.804C29.0627 7.284 29.4627 6.884 29.9747 6.604C30.4947 6.324 31.0907 6.184 31.7627 6.184C32.4267 6.184 33.0147 6.32 33.5267 6.592C34.0387 6.864 34.4387 7.256 34.7267 7.768C35.0147 8.272 35.1587 8.868 35.1587 9.556ZM32.7587 8.968C32.7587 8.68 32.6627 8.456 32.4707 8.296C32.2787 8.128 32.0387 8.044 31.7507 8.044C31.4627 8.044 31.2267 8.124 31.0427 8.284C30.8587 8.436 30.7387 8.664 30.6827 8.968H32.7587ZM40.5252 6.208C41.3012 6.208 41.9172 6.468 42.3732 6.988C42.8292 7.5 43.0572 8.196 43.0572 9.076V13H40.7052V9.388C40.7052 9.004 40.6052 8.704 40.4052 8.488C40.2052 8.264 39.9372 8.152 39.6012 8.152C39.2492 8.152 38.9732 8.264 38.7732 8.488C38.5732 8.704 38.4732 9.004 38.4732 9.388V13H36.1212V6.268H38.4732V7.228C38.6812 6.924 38.9612 6.68 39.3132 6.496C39.6652 6.304 40.0692 6.208 40.5252 6.208ZM48.3198 10.996V13H47.2998C45.5798 13 44.7198 12.148 44.7198 10.444V8.224H43.8918V6.268H44.7198V4.636H47.0838V6.268H48.3078V8.224H47.0838V10.48C47.0838 10.664 47.1238 10.796 47.2038 10.876C47.2918 10.956 47.4358 10.996 47.6358 10.996H48.3198Z" fill="white"/>
<path d="M63.6114 4.54L61.5354 13H58.6434L57.4794 7.816L56.2914 13H53.3994L51.3474 4.54H53.8914L54.8754 10.324L56.2074 4.54H58.7874L60.0834 10.276L61.0674 4.54H63.6114ZM69.0375 6.208C69.8055 6.208 70.4135 6.468 70.8615 6.988C71.3175 7.5 71.5455 8.196 71.5455 9.076V13H69.1935V9.388C69.1935 9.004 69.0935 8.704 68.8935 8.488C68.6935 8.264 68.4255 8.152 68.0895 8.152C67.7375 8.152 67.4615 8.264 67.2615 8.488C67.0615 8.704 66.9615 9.004 66.9615 9.388V13H64.6095V4.12H66.9615V7.228C67.1695 6.924 67.4495 6.68 67.8015 6.496C68.1615 6.304 68.5735 6.208 69.0375 6.208ZM79.2681 9.556C79.2681 9.74 79.2561 9.924 79.2321 10.108H74.7801C74.8041 10.476 74.9041 10.752 75.0801 10.936C75.2641 11.112 75.4961 11.2 75.7761 11.2C76.1681 11.2 76.4481 11.024 76.6161 10.672H79.1241C79.0201 11.136 78.8161 11.552 78.5121 11.92C78.2161 12.28 77.8401 12.564 77.3841 12.772C76.9281 12.98 76.4241 13.084 75.8721 13.084C75.2081 13.084 74.6161 12.944 74.0961 12.664C73.5841 12.384 73.1801 11.984 72.8841 11.464C72.5961 10.944 72.4521 10.332 72.4521 9.628C72.4521 8.924 72.5961 8.316 72.8841 7.804C73.1721 7.284 73.5721 6.884 74.0841 6.604C74.6041 6.324 75.2001 6.184 75.8721 6.184C76.5361 6.184 77.1241 6.32 77.6361 6.592C78.1481 6.864 78.5481 7.256 78.8361 7.768C79.1241 8.272 79.2681 8.868 79.2681 9.556ZM76.8681 8.968C76.8681 8.68 76.7721 8.456 76.5801 8.296C76.3881 8.128 76.1481 8.044 75.8601 8.044C75.5721 8.044 75.3361 8.124 75.1521 8.284C74.9681 8.436 74.8481 8.664 74.7921 8.968H76.8681ZM79.8466 9.628C79.8466 8.932 79.9706 8.324 80.2186 7.804C80.4746 7.284 80.8186 6.884 81.2506 6.604C81.6906 6.324 82.1786 6.184 82.7146 6.184C83.1786 6.184 83.5786 6.276 83.9146 6.46C84.2506 6.644 84.5106 6.892 84.6946 7.204V6.268H87.0466V13H84.6946V12.064C84.5106 12.376 84.2466 12.624 83.9026 12.808C83.5666 12.992 83.1706 13.084 82.7146 13.084C82.1786 13.084 81.6906 12.944 81.2506 12.664C80.8186 12.384 80.4746 11.984 80.2186 11.464C79.9706 10.936 79.8466 10.324 79.8466 9.628ZM84.6946 9.628C84.6946 9.196 84.5746 8.856 84.3346 8.608C84.1026 8.36 83.8146 8.236 83.4706 8.236C83.1186 8.236 82.8266 8.36 82.5946 8.608C82.3626 8.848 82.2466 9.188 82.2466 9.628C82.2466 10.06 82.3626 10.404 82.5946 10.66C82.8266 10.908 83.1186 11.032 83.4706 11.032C83.8146 11.032 84.1026 10.908 84.3346 10.66C84.5746 10.412 84.6946 10.068 84.6946 9.628ZM92.3588 10.996V13H91.3388C89.6188 13 88.7588 12.148 88.7588 10.444V8.224H87.9308V6.268H88.7588V4.636H91.1228V6.268H92.3468V8.224H91.1228V10.48C91.1228 10.664 91.1628 10.796 91.2428 10.876C91.3308 10.956 91.4748 10.996 91.6748 10.996H92.3588ZM99.8696 9.556C99.8696 9.74 99.8576 9.924 99.8336 10.108H95.3816C95.4056 10.476 95.5056 10.752 95.6816 10.936C95.8656 11.112 96.0976 11.2 96.3776 11.2C96.7696 11.2 97.0496 11.024 97.2176 10.672H99.7256C99.6216 11.136 99.4176 11.552 99.1136 11.92C98.8176 12.28 98.4416 12.564 97.9856 12.772C97.5296 12.98 97.0256 13.084 96.4736 13.084C95.8096 13.084 95.2176 12.944 94.6976 12.664C94.1856 12.384 93.7816 11.984 93.4856 11.464C93.1976 10.944 93.0536 10.332 93.0536 9.628C93.0536 8.924 93.1976 8.316 93.4856 7.804C93.7736 7.284 94.1736 6.884 94.6856 6.604C95.2056 6.324 95.8016 6.184 96.4736 6.184C97.1376 6.184 97.7256 6.32 98.2376 6.592C98.7496 6.864 99.1496 7.256 99.4376 7.768C99.7256 8.272 99.8696 8.868 99.8696 9.556ZM97.4696 8.968C97.4696 8.68 97.3736 8.456 97.1816 8.296C96.9896 8.128 96.7496 8.044 96.4616 8.044C96.1736 8.044 95.9376 8.124 95.7536 8.284C95.5696 8.436 95.4496 8.664 95.3936 8.968H97.4696ZM103.184 7.456C103.448 7.072 103.768 6.768 104.144 6.544C104.52 6.32 104.924 6.208 105.356 6.208V8.716H104.696C104.184 8.716 103.804 8.816 103.556 9.016C103.308 9.216 103.184 9.564 103.184 10.06V13H100.832V6.268H103.184V7.456Z" fill="#91C3FA"/>
</svg>
